
<svg xmlns="http://www.w3.org/2000/svg" width="24" height="24" viewBox="0 0 24 24">
    <path fill="currentColor" d="M12 2C6.477 2 2 6.477 2 12c0 5.523 4.477 10 10 10s10-4.477 10-10c0-5.523-4.477-10-10-10zm0 18c-4.418 0-8-3.582-8-8s3.582-8 8-8 8 3.582 8 8-3.582 8-8 8zm0-14c-3.314 0-6 2.686-6 6s2.686 6 6 6 6-2.686 6-6-2.686-6-6-6zm0 10c-2.209 0-4-1.791-4-4s1.791-4 4-4 4 1.791 4 4-1.791 4-4 4zm0-6c-1.105 0-2 .895-2 2s.895 2 2 2 2-.895 2-2-.895-2-2-2z"/>
</svg>
<svg xmlns="http://www.w3.org/2000/svg" viewBox="0 0 100 100">
  <circle cx="50" cy="50" r="45" fill="none" stroke="white" stroke-width="2"/>
  <circle cx="50" cy="50" r="30" fill="none" stroke="white" stroke-width="2"/>
  <circle cx="50" cy="50" r="15" fill="none" stroke="white" stroke-width="2"/>
  <circle cx="50" cy="50" r="3" fill="white"/>
  <line x1="0" y1="50" x2="25" y2="50" stroke="white" stroke-width="2"/>
  <line x1="75" y1="50" x2="100" y2="50" stroke="white" stroke-width="2"/>
  <line x1="50" y1="0" x2="50" y2="25" stroke="white" stroke-width="2"/>
  <line x1="50" y1="75" x2="50" y2="100" stroke="white" stroke-width="2"/>
</svg>
